# xmcd CD database file
# Copyright (C) 1996 Ti Kan
#
# Track frame offsets:
#	150
#	8250
#	37966
#	51248
#	61246
#	78621
#	96703
#	113351
#	125800
#	143980
#	155602
#	175420
#	185395
#	212080
#	231966
# Disc length: 3295 seconds
#
# Revision: 1
# Processed by: cddbd v1.5.1PL0 Copyright (c) Steve Scherf et al.
# Submitted via: CDCOPY 4.900
#
DISCID=cd0cdd0f
DTITLE=DJ Plus One - UK Drum and Bass
DYEAR=1900
DGENRE=
TTITLE0=Routine 2
TTITLE1=No Soul
TTITLE2=Even When It Rains
TTITLE3=Witchdoctor
TTITLE4=Squash V.I.P.
TTITLE5=Kloakin' King
TTITLE6=Rebirth
TTITLE7=Truly One
TTITLE8=End Theme
TTITLE9=Thugged Out Bitch
TTITLE10=The Lizard
TTITLE11=Metrosound
TTITLE12=Thunderball
TTITLE13=Champion Sound
TTITLE14=Delirium
EXTD=
EXTT0=
EXTT1=
EXTT2=
EXTT3=
EXTT4=
EXTT5=
EXTT6=
EXTT7=
EXTT8=
EXTT9=
EXTT10=
EXTT11=
EXTT12=
EXTT13=
EXTT14=
PLAYORDER=
